<svg xmlns="http://www.w3.org/2000/svg" width="23" height="40" fill="none" viewBox="0 0 23 40">
  <path stroke="#000" d="M3.38 9.55h9.903v9.486a1.5 1.5 0 01-1.5 1.5H4.879a1.5 1.5 0 01-1.5-1.5V9.55z"/>
  <rect width="1.554" height="8.49" x="13.312" y="9.55" stroke="#000" rx=".777"/>
  <rect width="1.679" height="9.764" x="7.491" y="28.715" stroke="#000" rx=".84"/>
  <rect width="1.611" height="8.49" x="1.712" y="9.55" stroke="#000" rx=".805"/>
  <path fill="#000" d="M8.021 21.036h.62v7.14h-.62z"/>
  <path fill="#E76F51" d="M6.623 30.516a.55.55 0 01.55-.531h.05a.5.5 0 00.5-.5.5.5 0 01.535-.498l.178.012a.493.493 0 01.459.492c0 .273.22.494.493.494h.102c.328 0 .595.266.595.595v.333a.928.928 0 01-.928.928h-1.62a.928.928 0 01-.927-.96l.013-.365z"/>
  <rect width="13.694" height=".604" x="1.484" y="22.598" fill="#000" rx=".302"/>
  <rect width="3.116" height="1.208" x="1.484" y="22.296" fill="#E76F51" rx=".604"/>
  <rect width="3.116" height="1.208" x="12.531" y="22.296" fill="#E76F51" rx=".604"/>
  <path fill="#000" d="M.762 6a.1.1 0 000 .14l.636.637a.1.1 0 00.142-.141L.974 6.07l.566-.566a.1.1 0 00-.142-.141l-.636.636zm15.284.14a.1.1 0 000-.14l-.637-.637a.1.1 0 00-.141.141l.565.566-.565.566a.1.1 0 00.141.14l.637-.635zM.833 6.17h15.142v-.2H.833v.2zM18.102 6a.1.1 0 00-.142-.001l-.64.633a.1.1 0 00.142.142l.568-.563.563.569a.1.1 0 10.142-.141l-.633-.64zm-.293 33.049a.1.1 0 00.141 0l.64-.633a.1.1 0 10-.141-.142l-.568.563-.563-.568a.1.1 0 10-.143.14l.634.64zm.121-32.98l-.15 32.909h.2l.15-32.908h-.2zM9.322 4.447l.507-2.019h.452L9.512 5.07h-.366l-.642-2.002-.625 2.002h-.367l-.766-2.642h.45l.52 1.978.614-1.978h.364l.628 2.02zM20.225 23.223h1.684v.383h-2.155V20.05h.47v3.172z"/>
</svg>
