<?xml version="1.0" encoding="utf-8"?>
<!-- Generator: Adobe Illustrator 24.1.2, SVG Export Plug-In . SVG Version: 6.00 Build 0)  -->
<svg version="1.1" id="Слой_1" xmlns="http://www.w3.org/2000/svg" xmlns:xlink="http://www.w3.org/1999/xlink" x="0px" y="0px"
	 viewBox="0 0 973.14 604.8" style="enable-background:new 0 0 973.14 604.8;" xml:space="preserve">
<style type="text/css">
	.st0{fill:#FFB888;}
	.st1{fill:#FFEADE;}
	.st2{fill:#03123B;}
	.st3{fill:#1BAA95;}
	.st4{fill:#F2674C;}
	.st5{fill:#F9934E;}
	.st6{fill:#FFFFFF;}
</style>
<g>
	<g>
		<g>
			<g>
				<g>
					<g>
						<path class="st0" d="M743.62,425.74c4.24,6.96,8.59,13.88,13.06,20.74c5.07,7.78,10.29,15.51,15.68,23.15
							c-7.57,16.53-13.64,33.52-18.09,50.79l-50.86-0.09C703.41,520.33,718.95,474.36,743.62,425.74z"/>
						<path class="st0" d="M778.44,457.09c-1.58,3.09-3.11,6.2-4.59,9.33c-9.95-14.19-19.32-28.66-28.21-43.31
							c-0.12-0.2-0.27-0.35-0.44-0.46c1.36-2.65,2.75-5.3,4.16-7.95c10.23,13.79,19.88,27.86,28.93,42.2
							C778.34,456.97,778.39,457.03,778.44,457.09z"/>
						<path class="st0" d="M835.96,473.7c-5.09,7.56-10.25,15.11-14.36,23.07c-3.6,6.97-6.75,14.55-6.65,22.21
							c-5.58-6.34-10.98-12.78-16.21-19.31c-7.94-9.92-15.53-20.04-22.8-30.3c10.61-22.91,24.14-44.92,40.28-65.57
							c9.72-12.44,20.38-24.37,31.92-35.71c0.06,0.01,0.11,0.02,0.17,0.03c7.77,0.66,15.52,1.5,23.23,2.53
							c6.07,0.81,12.12,1.73,18.13,2.76c-1.62,4.41-3.92,8.51-6.89,12.06c-20.82,24.87,7.82,15.63,24.02,22.26
							c1,0.41,2.03,0.94,3.07,1.58c-12.14,3.93-22.35,10.7-31.59,18.11C861.28,441.04,847.41,456.7,835.96,473.7z"/>
						<path class="st0" d="M768.62,486.49c1.83-4.66,3.78-9.3,5.85-13.89c11.72,16.44,24.24,32.5,37.85,47.93l-54.74-0.1
							C760.56,508.97,764.24,497.64,768.62,486.49z"/>
						<path class="st0" d="M850.63,365.67c11.47-11.06,23.78-21.54,36.86-31.35c5.58,11.03,6.63,24.67,3.04,36.53
							C877.34,368.6,864.02,366.88,850.63,365.67z"/>
						<path class="st0" d="M826.53,494.19c4.2-7.44,9.15-14.58,13.99-21.75c5.63-8.35,12.03-16.35,19.15-23.9
							c7.03-7.46,14.77-14.5,23.13-20.99c8.28-6.44,17.48-12.34,28.22-15.76c0.59-0.19,0.92-0.55,1.04-0.96
							c11.4,8.71,21.12,29.82-5.25,47.97c-30.43,20.95-24.02,23.57-19.22,39.28c4.8,15.71-2.79,22.59-2.79,22.59l-66.52-0.12
							C817.61,511.42,821.93,502.33,826.53,494.19z"/>
						<path class="st0" d="M886.03,331.81c3.43,9.3-23.62,17.68-43.4,37.58c-23.74,23.89-43.69,50.27-59.2,78.32
							c-1.14,2.07-2.26,4.15-3.36,6.23c-8.8-13.84-18.14-27.44-28.04-40.77c-0.38-0.51-0.96-0.68-1.51-0.62
							c25.31-46.97,58.56-92.77,94.04-98.67c2.26-0.42,5.12-0.76,8.43-0.72c5.5,0.06,9.94,1.13,12.85,2.06
							c2.94,1.06,7.44,3.02,11.82,6.57C882.08,325.36,885.22,329.62,886.03,331.81z"/>
					</g>
				</g>
			</g>
		</g>
	</g>
	<g>
		<g>
			<g>
				<g>
					<g>
						<path class="st0" d="M177.31,442.31c-3.45,5.66-6.98,11.29-10.62,16.87c-4.12,6.33-8.37,12.61-12.75,18.83
							c6.16,13.44,11.09,27.26,14.71,41.3l41.36-0.08C210,519.23,197.37,481.85,177.31,442.31z"/>
						<path class="st0" d="M148.99,467.8c1.29,2.51,2.53,5.04,3.73,7.59c8.09-11.54,15.71-23.31,22.94-35.22
							c0.1-0.16,0.22-0.28,0.36-0.37c-1.11-2.15-2.24-4.31-3.39-6.46c-8.32,11.22-16.17,22.66-23.53,34.32
							C149.07,467.71,149.03,467.76,148.99,467.8z"/>
						<path class="st0" d="M102.21,481.31c4.14,6.15,8.33,12.29,11.68,18.76c2.93,5.67,5.49,11.83,5.41,18.06
							c4.54-5.15,8.93-10.39,13.18-15.7c6.46-8.07,12.63-16.29,18.54-24.64c-8.63-18.63-19.63-36.53-32.75-53.32
							c-7.9-10.11-16.58-19.82-25.96-29.04c-0.05,0.01-0.09,0.02-0.14,0.02c-6.32,0.54-12.62,1.22-18.89,2.05
							c-4.94,0.66-9.85,1.41-14.75,2.25c1.32,3.58,3.19,6.92,5.61,9.81c16.93,20.23-6.36,12.71-19.54,18.1
							c-0.81,0.33-1.65,0.76-2.49,1.28c9.88,3.19,18.17,8.7,25.69,14.73C81.62,454.75,92.9,467.49,102.21,481.31z"/>
						<path class="st0" d="M156.98,491.71c-1.49-3.79-3.08-7.56-4.76-11.3c-9.53,13.37-19.72,26.43-30.78,38.98l44.52-0.08
							C163.53,510,160.54,500.78,156.98,491.71z"/>
						<path class="st0" d="M90.28,393.46c-9.33-9-19.34-17.52-29.98-25.5c-4.54,8.97-5.39,20.06-2.47,29.71
							C68.56,395.84,79.39,394.44,90.28,393.46z"/>
						<path class="st0" d="M109.88,497.98c-3.42-6.05-7.44-11.86-11.38-17.69c-4.58-6.79-9.79-13.3-15.58-19.44
							c-5.72-6.07-12.02-11.79-18.81-17.07c-6.74-5.24-14.21-10.04-22.95-12.82c-0.48-0.15-0.75-0.45-0.84-0.78
							c-9.27,7.09-17.17,24.25,4.27,39.01c24.74,17.04,19.54,19.16,15.63,31.94c-3.91,12.78,2.27,18.37,2.27,18.37l54.09-0.1
							C117.14,511.98,113.62,504.59,109.88,497.98z"/>
						<path class="st0" d="M61.5,365.92c-2.79,7.57,19.21,14.38,35.3,30.56c19.31,19.43,35.53,40.88,48.14,63.69
							c0.93,1.68,1.84,3.37,2.73,5.07c7.15-11.25,14.76-22.31,22.81-33.16c0.31-0.41,0.78-0.55,1.23-0.51
							c-20.58-38.2-47.63-75.44-76.48-80.24c-1.84-0.34-4.17-0.62-6.85-0.59c-4.47,0.05-8.08,0.92-10.45,1.68
							c-2.39,0.86-6.05,2.46-9.61,5.34C64.7,360.68,62.15,364.14,61.5,365.92z"/>
					</g>
				</g>
			</g>
		</g>
	</g>
	<g>
		<path class="st1" d="M391.12,268.64c2.41-5.04,1.35-11.53-2.54-15.54c-3.89-4.01-10.34-5.27-15.45-3.03
			c0.16-11.29-7.96-21.07-17.03-27.8c-4.68-3.47-9.94-6.51-15.73-7.16c-7.63-0.85-15.26,2.64-20.96,7.79
			c-5.7,5.15-9.74,11.85-13.48,18.56c-2.34-3.92-7.87-5.55-11.96-3.53c-4.1,2.03-6.15,7.41-4.45,11.65
			c-9.05-1.5-18.51,6.17-18.92,15.34"/>
	</g>
	<g>
		<path class="st1" d="M70.65,157.77c-2.41-5.04-1.35-11.53,2.54-15.54c3.89-4.01,10.34-5.27,15.45-3.03
			c-0.16-11.29,7.96-21.07,17.03-27.8c4.68-3.47,9.94-6.51,15.73-7.16c7.63-0.85,15.26,2.64,20.96,7.79
			c5.7,5.15,9.74,11.85,13.48,18.56c2.34-3.92,7.87-5.55,11.96-3.53c4.1,2.03,6.15,7.41,4.45,11.65c9.05-1.5,18.51,6.17,18.92,15.34
			"/>
	</g>
	<g>
		<path class="st1" d="M881.93,127.17c2.41-4.83,1.35-11.04-2.54-14.88s-10.34-5.05-15.45-2.9c0.16-10.81-7.96-20.18-17.03-26.62
			c-4.68-3.33-9.94-6.24-15.73-6.86c-7.63-0.82-15.26,2.52-20.96,7.46c-5.7,4.94-9.74,11.34-13.48,17.77
			c-2.34-3.76-7.87-5.32-11.96-3.38c-4.1,1.94-6.15,7.09-4.45,11.16c-9.05-1.44-18.51,5.91-18.92,14.69"/>
	</g>
</g>
<path class="st2" d="M575.13,70.9c3.32,13.93,6.99,17.4,9.85,17.81c1.35,0.19,3.04-0.23,5.49,0.76c2.83,1.14,3.77,2.99,5.68,4.55
	c1.87,1.52,5.02,3.06,10.61,2.84c-1.87,6.72-1.71,12.27-1.33,15.73c0.65,5.86,1.35,12.26,6.44,16.29c4.42,3.51,9.84,3.41,12.13,3.22
	c1.24,0.11,3.02,0.42,4.93,1.33c3.04,1.45,4.71,3.62,7.39,7.2c6.72,8.96,6.34,8.74,6.82,9.09c6.63,4.89,16.49,1.85,18.19,1.33
	c1.93-0.6,4.84-1.49,7.58-3.98c2.66-2.42,2.43-3.85,5.31-6.82c3.23-3.33,4.35-2.37,7.58-5.49c1.22-1.18,4.98-4.81,5.68-10.04
	c0.49-3.63-1.04-4.03-1.14-8.91c-0.12-5.81,2.02-6.75,1.89-11.18c-0.13-4.52-2.54-10.06-6.82-12.88c-5.61-3.7-10.01,0.16-16.48-3.79
	c-3.67-2.24-2.5-3.64-6.82-7.58c-6.43-5.87-14.52-7.81-20.65-9.28c-5.84-1.4-7.27-0.93-10.61-2.84c-4.45-2.55-4.33-4.79-8.72-8.15
	c-6.47-4.96-13.7-5.43-15.16-5.49c-6.67-0.32-11.83,2-14.4,3.41c-0.79-0.86-2.37-2.31-4.74-2.84c-3.74-0.84-7.89,0.96-10.61,4.55
	c-0.52,0.36-1.3,0.9-2.27,1.52c-3,1.9-3.61,1.91-4.55,2.65c-2.19,1.74-1.19,3.55-3.22,7.77c-1.9,3.94-3.19,3.23-4.36,6.44
	c-1.33,3.65-0.68,7.36-0.38,9.09c0.57,3.26,1.41,3.63,1.33,6.06c-0.1,3.05-1.46,3.93-1.71,6.25c-0.21,1.94,0.36,4.83,4.17,8.72l0,0
	l1.18,0.19c0.8-3.1,1.55-7.72,0.81-13.17c-0.32-2.31-0.84-4.34-1.42-6.06c1.67-1.79,3.4-3.84,5.12-6.16
	C571.12,78.71,573.44,74.53,575.13,70.9z"/>
<circle class="st2" cx="614.73" cy="61.14" r="11.08"/>
<path class="st3" d="M612.56,235.74c-26.26,17.45-52.53,34.91-78.79,52.36c-1.13,2.47-2.59,6.29-3.28,11.12
	c-1.35,9.36,1,16.79,2.06,20.2c3.67,11.87,9.4,32.84,17.14,60.14c17.52-4.93,35.03-9.85,52.55-14.78
	c-3.71-15.96-7.41-31.92-11.12-47.87c11.03-3.54,22.06-7.07,33.09-10.61c-1.6,34.02-3.2,68.04-4.8,102.06
	c22.48-2.61,44.97-5.22,67.45-7.83c4.07-25.32,6.04-46.61,7.07-62.15c3.71-55.82-2.12-74.58-5.78-84.06
	c-5.47-14.19-12.62-24.69-17.62-31.17C651.21,227.34,631.88,231.54,612.56,235.74z"/>
<path class="st4" d="M611.58,126.92c-7.2,3.66-14.4,7.33-21.6,10.99c-2.45,1.86-5.63,4.37-9.25,7.45
	c-8.89,7.58-14.92,13.97-16.29,15.44c-4.46,4.77-9.73,10.91-15.16,18.47c1.47,1.25,2.94,2.51,4.42,3.76
	c-1.5,2.85-3.01,5.71-4.51,8.56c10.36,8.59,20.72,17.18,31.07,25.77c2.36-2.02,4.72-4.04,7.07-6.06c2.33,4.26,5.24,8.98,8.84,13.89
	c3.53,4.81,7.07,8.92,10.36,12.38c0.97,0.23,2.31,0.49,3.93,0.62c1.78,0.14,4,0.12,6.68-0.37c6.07-1.1,6.37-3.26,11.87-4.29
	c3.62-0.68,3.91,0.01,10.61-0.76c3.51-0.4,5.44-0.63,7.83-1.26c6.86-1.83,7.22-4.32,12.38-5.56c4.45-1.07,8.2-0.17,13.14,1.01
	c6.95,1.66,7.93,3.61,12.63,4.04c3.23,0.3,7.47-0.19,12.63-3.03c-4.21-5.43-9.56-12.56-15.54-21.09
	c-2.76-3.94-7.98-11.51-15.41-23.24c-20.22-31.94-20.38-37.21-29.94-44.84C632.47,134.9,624.36,129.77,611.58,126.92z"/>
<g>
	<g>
		<path class="st2" d="M680.33,433.34c0-47.94,39-86.94,86.94-86.94c47.94,0,86.94,39,86.94,86.94c0,47.94-39,86.94-86.94,86.94
			C719.33,520.27,680.33,481.27,680.33,433.34z M691.2,433.34c0,41.94,34.12,76.07,76.07,76.07s76.07-34.12,76.07-76.07
			s-34.13-76.07-76.07-76.07S691.2,391.39,691.2,433.34z"/>
	</g>
</g>
<g>
	<path class="st5" d="M699.8,433.34c0-37.2,30.27-67.47,67.47-67.47c37.2,0,67.47,30.27,67.47,67.47c0,37.2-30.27,67.47-67.47,67.47
		C730.07,500.8,699.8,470.54,699.8,433.34z M702.52,433.34c0,35.7,29.05,64.75,64.75,64.75s64.75-29.05,64.75-64.75
		s-29.05-64.75-64.75-64.75S702.52,397.63,702.52,433.34z"/>
</g>
<g>
	<path class="st5" d="M767.27,492.33c32.53,0,58.99-26.46,58.99-58.99c0-9.5-2.19-18.57-6.51-26.96c-0.34-0.67-1.16-0.93-1.83-0.59
		c-0.67,0.34-0.93,1.16-0.59,1.83c4.12,8,6.2,16.65,6.2,25.71c0,31.03-25.24,56.27-56.27,56.27c-8.16,0-16.03-1.71-23.39-5.08
		c-0.68-0.31-1.49-0.01-1.8,0.67c-0.31,0.68-0.01,1.49,0.67,1.8C750.47,490.54,758.72,492.33,767.27,492.33z"/>
</g>
<g>
	<path class="st5" d="M725.21,395.3c0.36,0,0.72-0.14,0.99-0.43c10.6-11.32,25.57-17.81,41.07-17.81c0.75,0,1.36-0.61,1.36-1.36
		c0-0.75-0.61-1.36-1.36-1.36c-16.25,0-31.94,6.8-43.06,18.67c-0.51,0.55-0.48,1.41,0.06,1.92
		C724.54,395.18,724.87,395.3,725.21,395.3z"/>
</g>
<g>
	<g>
		<path class="st2" d="M185.59,462.72c0-32.41,26.37-58.78,58.77-58.78c32.41,0,58.78,26.37,58.78,58.78
			c0,32.41-26.37,58.77-58.78,58.77C211.96,521.5,185.59,495.13,185.59,462.72z M192.94,462.72c0,28.36,23.07,51.43,51.43,51.43
			s51.43-23.07,51.43-51.43s-23.07-51.43-51.43-51.43S192.94,434.37,192.94,462.72z"/>
	</g>
</g>
<g>
	<path class="st5" d="M198.76,462.72c0-25.15,20.46-45.61,45.61-45.61c25.15,0,45.61,20.46,45.61,45.61
		c0,25.15-20.46,45.61-45.61,45.61C219.22,508.33,198.76,487.87,198.76,462.72z M200.59,462.72c0,24.14,19.64,43.77,43.77,43.77
		s43.78-19.64,43.78-43.77s-19.64-43.78-43.78-43.78S200.59,438.59,200.59,462.72z"/>
</g>
<g>
	<path class="st5" d="M244.37,502.6c21.99,0,39.88-17.89,39.88-39.88c0-6.42-1.48-12.55-4.4-18.22c-0.23-0.45-0.79-0.63-1.24-0.4
		c-0.45,0.23-0.63,0.79-0.4,1.24c2.78,5.41,4.19,11.26,4.19,17.38c0,20.98-17.07,38.04-38.04,38.04c-5.52,0-10.84-1.15-15.81-3.43
		c-0.46-0.21-1.01-0.01-1.22,0.45c-0.21,0.46-0.01,1.01,0.45,1.22C233.01,501.39,238.58,502.6,244.37,502.6z"/>
</g>
<g>
	<path class="st5" d="M215.93,437.01c0.24,0,0.49-0.1,0.67-0.29c7.17-7.65,17.29-12.04,27.77-12.04c0.51,0,0.92-0.41,0.92-0.92
		s-0.41-0.92-0.92-0.92c-10.99,0-21.6,4.6-29.11,12.62c-0.35,0.37-0.33,0.95,0.04,1.3C215.48,436.93,215.7,437.01,215.93,437.01z"/>
</g>
<path class="st2" d="M253.43,461.96c0,5.52-4.48,10-10,10c-5.52,0-10-4.48-10-10c0-5.52,4.48-10,10-10
	C248.95,451.97,253.43,456.44,253.43,461.96z"/>
<path class="st2" d="M530.07,235.04c0,5.52-4.48,10-10,10s-10-4.48-10-10c0-5.52,4.48-10,10-10S530.07,229.52,530.07,235.04z"/>
<path class="st4" d="M614.04,393.84c-2.36,0.21-5.59,0.76-9.19,2.2c-4.44,1.78-7.61,4.2-9.57,5.96c0.11-1.22,0.11-3.44-1.15-5.59
	c-2.04-3.48-6.54-5.31-11.37-4.61c-3.54,3.72-6.52,6.87-8.78,9.25c-5.34,5.64-5.57,5.89-6.47,6.68c-5.49,4.85-7.53,4.68-9.59,8.16
	c-0.69,1.17-2.8,4.74-1.56,8.8c1.05,3.43,3.87,5.2,4.77,5.71c18.53-2.32,37.06-4.64,55.59-6.96c1.11-2.54,2.44-6.49,2.58-11.43
	C619.57,403.05,615.77,396.46,614.04,393.84z"/>
<path class="st2" d="M626.13,434.4c0.45,14.36,1.21,22.1-1.76,23.47c-0.94,0.43-2.55,0.37-5.46-2.11
	c-12.13-1.48-20.56-11.94-20.37-21.88c0.23-11.79,12.61-23.39,27.29-20.29C625.82,418.24,625.85,425.48,626.13,434.4z"/>
<path class="st6" d="M622.05,458.86h-3.69c-1.16,0-2.11-0.94-2.11-2.11v-20.78c0-1.16,0.94-2.11,2.11-2.11h3.69
	c1.16,0,2.11,0.94,2.11,2.11v20.78C624.16,457.92,623.22,458.86,622.05,458.86z"/>
<path class="st3" d="M470.14,434.88c-59.17,0-118.34,0-177.51,0c-7.62-34.86-15.23-69.72-22.85-104.59
	c77.43-11.54,154.86-23.08,232.28-34.63C491.42,342.07,480.78,388.47,470.14,434.88z"/>
<ellipse transform="matrix(0.4694 -0.883 0.883 0.4694 234.4593 586.8642)" class="st6" cx="605.56" cy="98.34" rx="6.88" ry="5.73"/>
<g>
	<g>
		<path class="st2" d="M296.8,437.89c78.58,0,157.17,0,235.75,0c22.22,0,44.43,0,66.65,0c1.93,0,1.93-3,0-3
			c-78.58,0-157.17,0-235.75,0c-22.22,0-44.43,0-66.65,0C294.87,434.89,294.86,437.89,296.8,437.89L296.8,437.89z"/>
	</g>
</g>
<g>
	<g>
		<path class="st2" d="M300.63,447.91c78.15,0,156.29,0,234.44,0c22.28,0,44.56,0,66.84,0c1.93,0,1.93-3,0-3
			c-78.15,0-156.29,0-234.44,0c-22.28,0-44.56,0-66.84,0C298.7,444.91,298.7,447.91,300.63,447.91L300.63,447.91z"/>
	</g>
</g>
<g>
	<g>
		<path class="st2" d="M653.78,437.49c9.36,0,18.71,0,28.07,0c1.93,0,1.93-3,0-3c-9.36,0-18.71,0-28.07,0
			C651.85,434.49,651.85,437.49,653.78,437.49L653.78,437.49z"/>
	</g>
</g>
<g>
	<g>
		<path class="st2" d="M653.32,447.38c9.74,0,19.48,0,29.22,0c1.93,0,1.93-3,0-3c-9.74,0-19.48,0-29.22,0
			C651.39,444.38,651.39,447.38,653.32,447.38L653.32,447.38z"/>
	</g>
</g>
<g>
	<g>
		<path class="st2" d="M582.43,482.36c0,2.72,0,5.44,0,8.15c0,1.93,3,1.93,3,0c0-2.72,0-5.44,0-8.15
			C585.43,480.43,582.43,480.42,582.43,482.36L582.43,482.36z"/>
	</g>
</g>
<g>
	<g>
		<path class="st2" d="M584.43,492.35c24.7,0,49.41,0,74.11,0c1.93,0,1.93-3,0-3c-24.7,0-49.41,0-74.11,0
			C582.5,489.35,582.5,492.35,584.43,492.35L584.43,492.35z"/>
	</g>
</g>
<g>
	<g>
		<path class="st2" d="M660.04,490.13c0-2.82,0-5.64,0-8.45c0-1.93-3-1.93-3,0c0,2.82,0,5.64,0,8.45
			C657.04,492.06,660.04,492.07,660.04,490.13L660.04,490.13z"/>
	</g>
</g>
<g>
	<g>
		<path class="st2" d="M658.63,480c-1.65,0-3.31,0-4.96,0c-1.93,0-1.93,3,0,3c1.65,0,3.31,0,4.96,0
			C660.56,483,660.56,480,658.63,480L658.63,480z"/>
	</g>
</g>
<g>
	<g>
		<path class="st2" d="M583.93,483.86c2.7,0,5.4,0,8.1,0c1.93,0,1.93-3,0-3c-2.7,0-5.4,0-8.1,0C582,480.86,582,483.86,583.93,483.86
			L583.93,483.86z"/>
	</g>
</g>
<g>
	<g>
		<path class="st2" d="M513.27,239.88c-14.86,65.37-29.72,130.74-44.58,196.12c-0.43,1.88,2.46,2.68,2.89,0.8
			c14.86-65.37,29.72-130.74,44.58-196.12C516.59,238.79,513.7,237.99,513.27,239.88L513.27,239.88z"/>
	</g>
</g>
<g>
	<g>
		<path class="st2" d="M266.39,330.98c9.15,36.3,18.3,72.6,27.45,108.9c0.47,1.87,3.37,1.08,2.89-0.8
			c-9.15-36.3-18.3-72.6-27.45-108.9C268.81,328.31,265.92,329.1,266.39,330.98L266.39,330.98z"/>
	</g>
</g>
<g>
	<g>
		<path class="st2" d="M279.16,380.23c-12.54,24.36-25.08,48.73-37.62,73.09c-0.88,1.71,1.71,3.23,2.59,1.51
			c12.54-24.36,25.08-48.73,37.62-73.09C282.64,380.03,280.05,378.51,279.16,380.23L279.16,380.23z"/>
	</g>
</g>
<g>
	<g>
		<path class="st2" d="M284.39,401.14c-14.09,20.48-28.17,40.95-42.26,61.43c-1.1,1.59,1.5,3.1,2.59,1.51
			c14.09-20.48,28.17-40.95,42.26-61.43C288.08,401.06,285.48,399.56,284.39,401.14L284.39,401.14z"/>
	</g>
</g>
<g>
	<g>
		<path class="st2" d="M788.34,339.54c-7.45,28.99-14.91,57.98-22.36,86.97c-0.48,1.87,2.41,2.67,2.89,0.8
			c7.45-28.99,14.91-57.98,22.36-86.97C791.72,338.47,788.83,337.67,788.34,339.54L788.34,339.54z"/>
	</g>
</g>
<g>
	<g>
		<path class="st2" d="M798.28,339.54c-7.74,30.11-15.48,60.23-23.23,90.34c-0.48,1.87,2.41,2.67,2.89,0.8
			c7.74-30.11,15.48-60.23,23.23-90.34C801.65,338.47,798.76,337.67,798.28,339.54L798.28,339.54z"/>
	</g>
</g>
<g>
	<g>
		<path class="st2" d="M711.97,341.61c14.54,29.5,29.08,59,43.62,88.51c0.85,1.73,3.44,0.21,2.59-1.51
			c-14.54-29.5-29.08-59-43.62-88.51C713.7,338.36,711.11,339.88,711.97,341.61L711.97,341.61z"/>
	</g>
</g>
<g>
	<g>
		<path class="st2" d="M722.4,341.02c13.75,27.89,27.49,55.78,41.24,83.67c0.85,1.73,3.44,0.21,2.59-1.51
			c-13.75-27.89-27.49-55.78-41.24-83.67C724.14,337.77,721.55,339.29,722.4,341.02L722.4,341.02z"/>
	</g>
</g>
<g>
	<g>
		<path class="st2" d="M501.67,294.22c-78.08,11.64-156.15,23.28-234.23,34.92c-1.9,0.28-1.09,3.17,0.8,2.89
			c78.08-11.64,156.15-23.28,234.23-34.92C504.37,296.83,503.56,293.94,501.67,294.22L501.67,294.22z"/>
	</g>
</g>
<g>
	<g>
		<path class="st2" d="M524.64,239.12c-14.86,65.37-29.72,130.74-44.58,196.12c-0.43,1.88,2.46,2.68,2.89,0.8
			c14.86-65.37,29.72-130.74,44.58-196.12C527.96,238.04,525.06,237.23,524.64,239.12L524.64,239.12z"/>
	</g>
</g>
<g>
	<g>
		<path class="st2" d="M546.14,426.78c2.77,0,5.55,0,8.32,0c1.93,0,1.93-3,0-3c-2.77,0-5.55,0-8.32,0
			C544.21,423.78,544.21,426.78,546.14,426.78L546.14,426.78z"/>
	</g>
</g>
<g>
	<g>
		<path class="st2" d="M544.64,425.78c0,3.03,0,6.06,0,9.09c0,1.93,3,1.93,3,0c0-3.03,0-6.06,0-9.09
			C547.64,423.85,544.64,423.85,544.64,425.78L544.64,425.78z"/>
	</g>
</g>
<g>
	<g>
		<path class="st2" d="M534.13,290.68c24.82-17.79,50.52-34.31,77.01-49.51c1.67-0.96,0.17-3.55-1.51-2.59
			c-26.49,15.19-52.19,31.71-77.01,49.51C531.06,289.21,532.56,291.81,534.13,290.68L534.13,290.68z"/>
	</g>
</g>
<g>
	<g>
		<path class="st2" d="M532.97,326.81c4.69,17.66,9.89,35.18,15.6,52.54c0.6,1.83,3.5,1.04,2.89-0.8
			c-5.71-17.36-10.91-34.88-15.6-52.54C535.37,324.15,532.48,324.94,532.97,326.81L532.97,326.81z"/>
	</g>
</g>
<g>
	<g>
		<path class="st2" d="M551.09,381.27c13.73-4.81,27.65-9.06,41.73-12.74c1.87-0.49,1.08-3.38-0.8-2.89
			c-14.08,3.68-27.99,7.92-41.73,12.74C548.48,379.01,549.26,381.91,551.09,381.27L551.09,381.27z"/>
	</g>
</g>
<g>
	<g>
		<path class="st2" d="M575.94,321.99c16.04-4.32,32.08-8.64,48.12-12.95c1.86-0.5,1.07-3.4-0.8-2.89
			c-16.04,4.32-32.08,8.64-48.12,12.95C573.28,319.6,574.07,322.49,575.94,321.99L575.94,321.99z"/>
	</g>
</g>
<g>
	<g>
		<path class="st2" d="M623.72,294c0.57,38.26-5.59,76.25-4.9,114.52c0.03,1.93,3.03,1.93,3,0c-0.68-38.26,5.48-76.26,4.9-114.52
			C626.69,292.07,623.69,292.07,623.72,294L623.72,294z"/>
	</g>
</g>
<g>
	<g>
		<path class="st2" d="M672.98,229.01c21.23,25.83,20.29,60.78,19.02,92.33c-0.08,1.93,2.92,1.93,3,0
			c1.31-32.49,1.92-67.91-19.9-94.45C673.87,225.4,671.76,227.53,672.98,229.01L672.98,229.01z"/>
	</g>
</g>
<g>
	<g>
		<path class="st2" d="M616.52,274.75c1.59,2.74,3.18,5.47,4.77,8.21c0.97,1.67,3.56,0.16,2.59-1.51c-1.59-2.74-3.18-5.47-4.77-8.21
			C618.14,271.56,615.54,273.07,616.52,274.75L616.52,274.75z"/>
	</g>
</g>
<g>
	<g>
		<path class="st2" d="M648.55,243.2c1.89,10.94,7.61,21.08,18.67,24.65c1.84,0.59,2.63-2.3,0.8-2.89
			c-10.06-3.25-14.88-12.74-16.57-22.55C651.12,240.51,648.22,241.31,648.55,243.2L648.55,243.2z"/>
	</g>
</g>
<g>
	<g>
		<path class="st2" d="M625.74,411.05c0,11.66,0,23.33,0,34.99c0,1.93,3,1.93,3,0c0-11.66,0-23.33,0-34.99
			C628.74,409.12,625.74,409.11,625.74,411.05L625.74,411.05z"/>
	</g>
</g>
<g>
	<g>
		<path class="st2" d="M584.77,394.04c4.33-0.63,8.08,2.6,8.32,6.91c0.11,1.92,3.11,1.93,3,0c-0.36-6.44-5.79-10.72-12.12-9.81
			C582.07,391.42,582.88,394.31,584.77,394.04L584.77,394.04z"/>
	</g>
</g>
<g>
	<g>
		<path class="st2" d="M562.4,432.36c11.86-1.71,23.79-2.81,35.65-4.53c5.26-0.77,12.21-0.96,17.11-3.08c2.7-1.17,3.84-3.69,4-6.48
			c0.11-1.93-2.89-1.92-3,0c-0.3,5.2-11.39,5.5-15.13,6.1c-4.85,0.77-9.72,1.4-14.6,1.99c-8.28,1.01-16.56,1.92-24.82,3.11
			C559.7,429.74,560.51,432.63,562.4,432.36L562.4,432.36z"/>
	</g>
</g>
<g>
	<g>
		<path class="st2" d="M580.25,423.42c4.48-5.5,8.97-11,13.45-16.5c1.21-1.48-0.9-3.62-2.12-2.12c-4.48,5.5-8.97,11-13.45,16.5
			C576.92,422.78,579.03,424.92,580.25,423.42L580.25,423.42z"/>
	</g>
</g>
<g>
	<g>
		<path class="st2" d="M571.17,408.49c1.94,0.64,3.81,1.42,5.62,2.35c1.71,0.88,3.23-1.71,1.51-2.59c-2.04-1.05-4.16-1.94-6.34-2.66
			C570.13,404.99,569.34,407.89,571.17,408.49L571.17,408.49z"/>
	</g>
</g>
<g>
	<g>
		<path class="st2" d="M575.09,403.52c1.74,0.8,3.48,1.6,5.21,2.39c1.74,0.8,3.27-1.79,1.51-2.59c-1.74-0.8-3.48-1.6-5.21-2.39
			C574.86,400.13,573.33,402.72,575.09,403.52L575.09,403.52z"/>
	</g>
</g>
<g>
	<g>
		<path class="st2" d="M579.59,399.02c1.37,0.28,2.72,0.69,4,1.26c0.74,0.33,1.61,0.21,2.05-0.54c0.38-0.64,0.2-1.72-0.54-2.05
			c-1.52-0.69-3.08-1.23-4.72-1.57C578.51,395.74,577.7,398.63,579.59,399.02L579.59,399.02z"/>
	</g>
</g>
<g>
	<g>
		<path class="st2" d="M562.73,416.02c5.18,0.03,9.91,3.18,11.79,8.05c0.69,1.78,3.59,1.01,2.89-0.8
			c-2.36-6.14-8.07-10.21-14.68-10.25C560.8,413.01,560.8,416.01,562.73,416.02L562.73,416.02z"/>
	</g>
</g>
<g>
	<g>
		<path class="st2" d="M628.56,422.24c8.14-0.28,16.28-0.66,24.41-1.14c1.92-0.11,1.93-3.11,0-3c-8.13,0.48-16.27,0.86-24.41,1.14
			C626.63,419.3,626.63,422.3,628.56,422.24L628.56,422.24z"/>
	</g>
</g>
<g>
	<g>
		<path class="st2" d="M599.17,367.09c2.64,9.34,5.28,18.68,7.92,28.02c0.52,1.85,3.42,1.07,2.89-0.8
			c-2.64-9.34-5.28-18.68-7.92-28.02C601.54,364.44,598.64,365.23,599.17,367.09L599.17,367.09z"/>
	</g>
</g>
<g>
	<g>
		<path class="st2" d="M574.41,373.74c3.64,6.16,7.41,12.23,11.33,18.21c1.05,1.61,3.65,0.11,2.59-1.51
			c-3.92-5.98-7.7-12.05-11.33-18.21C576.02,370.56,573.42,372.07,574.41,373.74L574.41,373.74z"/>
	</g>
</g>
<g>
	<g>
		<path class="st2" d="M583.18,382.54c6.45-1.8,12.92-3.54,19.41-5.21c1.87-0.48,1.08-3.38-0.8-2.89
			c-6.49,1.67-12.96,3.41-19.41,5.21C580.53,380.17,581.32,383.06,583.18,382.54L583.18,382.54z"/>
	</g>
</g>
<g>
	<g>
		<path class="st2" d="M582.3,216.64c9-8.21,17.36-17.04,25.08-26.46c1.21-1.48-0.9-3.62-2.12-2.12
			c-7.72,9.43-16.08,18.25-25.08,26.46C578.75,215.82,580.87,217.94,582.3,216.64L582.3,216.64z"/>
	</g>
</g>
<g>
	<g>
		<path class="st2" d="M551.62,190.57c7.81-10.6,15.61-21.19,23.42-31.79c7.41-10.05,15.98-21.93,29.89-21.55
			c1.93,0.05,1.93-2.95,0-3c-12.24-0.33-21.19,8.14-28.19,17.27c-9.46,12.34-18.49,25.04-27.71,37.55
			C547.88,190.61,550.48,192.11,551.62,190.57L551.62,190.57z"/>
	</g>
</g>
<g>
	<g>
		<path class="st2" d="M548.87,192.06c2.61,3.01,5.44,5.79,8.48,8.35c1.47,1.23,3.6-0.88,2.12-2.12c-3.05-2.56-5.87-5.34-8.48-8.35
			C549.72,188.48,547.61,190.61,548.87,192.06L548.87,192.06z"/>
	</g>
</g>
<g>
	<g>
		<path class="st2" d="M606.65,238.07c9.24,4.22,16.54-3.66,25.53-4.37c1.91-0.15,1.93-3.15,0-3c-7.9,0.62-16.16,8.37-24.01,4.78
			C606.42,234.68,604.89,237.27,606.65,238.07L606.65,238.07z"/>
	</g>
</g>
<g>
	<g>
		<path class="st2" d="M651.01,232.09c9.36-5.48,18.28-4.81,28.21-1.66c6.44,2.04,13.04,3.55,19.18-0.15c1.65-1,0.14-3.59-1.51-2.59
			c-8.41,5.07-17.51-1.38-26.08-2.62c-7.48-1.07-14.84,0.63-21.32,4.42C647.83,230.47,649.34,233.07,651.01,232.09L651.01,232.09z"
			/>
	</g>
</g>
<g>
	<g>
		<path class="st2" d="M646.22,149.52c9.05,16.62,18.56,32.98,28.52,49.08c1.01,1.64,3.61,0.13,2.59-1.51
			c-9.96-16.09-19.47-32.45-28.52-49.08C647.89,146.31,645.3,147.82,646.22,149.52L646.22,149.52z"/>
	</g>
</g>
<g>
	<g>
		<path class="st2" d="M696.06,328.12c35.68,0,71.36,0,107.04,0c1.93,0,1.93-3,0-3c-35.68,0-71.36,0-107.04,0
			C694.13,325.12,694.13,328.12,696.06,328.12L696.06,328.12z"/>
	</g>
</g>
<g>
	<g>
		<path class="st2" d="M802.26,327.18c0,3.79,0,7.58,0,11.37c0,1.93,3,1.93,3,0c0-3.79,0-7.58,0-11.37
			C805.26,325.25,802.26,325.24,802.26,327.18L802.26,327.18z"/>
	</g>
</g>
<g>
	<g>
		<path class="st2" d="M803.2,338.44c-35.97,0-71.94,0-107.91,0c-1.93,0-1.93,3,0,3c35.97,0,71.94,0,107.91,0
			C805.14,341.44,805.14,338.44,803.2,338.44L803.2,338.44z"/>
	</g>
</g>
<g>
	<g>
		<path class="st2" d="M599.61,401.12c4.04-3.14,8.86-4.58,13.95-4.37c1.93,0.08,1.93-2.92,0-3c-5.93-0.25-11.4,1.62-16.07,5.24
			C595.96,400.18,598.1,402.29,599.61,401.12L599.61,401.12z"/>
	</g>
</g>
<g>
	<g>
		<path class="st2" d="M694.31,276.7c2.57-0.39,6.67-1.44,9.27-0.84c3.24,0.74,2.97,5.28,2.92,7.97c-0.12,6.41-7.41,7.16-12.36,8.75
			c-1.83,0.59-1.05,3.48,0.8,2.89c3.76-1.21,8.62-1.98,11.77-4.55c2.8-2.27,2.91-5.63,2.74-8.99c-0.14-2.8,0-6.97-2.85-8.5
			c-3.49-1.87-9.37-0.18-13.08,0.37C691.61,274.1,692.42,276.99,694.31,276.7L694.31,276.7z"/>
	</g>
</g>
<g>
	<g>
		<path class="st2" d="M573.8,101.96c-0.22,0.91-0.67,1.7-1.28,2.4c-0.44,0.51-1.01,0.94-1.09,1.66c-0.14,1.37,1.29,2.47,2.45,2.8
			c1.12,0.32,1.59-1.42,0.48-1.74c-0.35-0.1-1.14-0.44-1.05-0.92c0.05-0.28,0.78-0.88,0.97-1.13c0.59-0.79,1.02-1.64,1.26-2.6
			C575.81,101.32,574.08,100.84,573.8,101.96L573.8,101.96z"/>
	</g>
</g>
<g>
	<g>
		<path class="st2" d="M572.51,115.47c2.25,1.13,4.75,1.12,6.98-0.06c1.02-0.54,0.12-2.1-0.91-1.55c-1.63,0.86-3.51,0.89-5.16,0.06
			C572.39,113.4,571.47,114.95,572.51,115.47L572.51,115.47z"/>
	</g>
</g>
<g>
	<g>
		<path class="st2" d="M584.56,102.35c-0.26,0.65-0.4,1.31-0.47,2c-0.03,0.32,0.3,0.6,0.6,0.6c0.35,0,0.57-0.28,0.6-0.6
			c0.06-0.58,0.22-1.14,0.43-1.68c0.12-0.3-0.13-0.66-0.42-0.74C584.95,101.83,584.67,102.04,584.56,102.35L584.56,102.35z"/>
	</g>
</g>
<g>
	<g>
		<path class="st2" d="M587.81,101.82c-0.17,0.56-0.35,1.11-0.52,1.67c-0.23,0.74,0.93,1.05,1.16,0.32
			c0.17-0.56,0.35-1.11,0.52-1.67C589.2,101.4,588.04,101.09,587.81,101.82L587.81,101.82z"/>
	</g>
</g>
<g>
	<g>
		<path class="st2" d="M564.88,104.29c0.31,0.42,0.61,0.84,0.92,1.27c0.19,0.26,0.52,0.39,0.82,0.22c0.26-0.15,0.41-0.56,0.22-0.82
			c-0.3-0.42-0.61-0.84-0.92-1.27c-0.19-0.26-0.52-0.39-0.82-0.22C564.83,103.62,564.69,104.03,564.88,104.29L564.88,104.29z"/>
	</g>
</g>
<g>
	<g>
		<path class="st2" d="M567.84,103.52c0.26,0.41,0.52,0.82,0.78,1.24c0.41,0.65,1.45,0.05,1.04-0.61c-0.26-0.41-0.52-0.82-0.78-1.24
			C568.47,102.26,567.43,102.86,567.84,103.52L567.84,103.52z"/>
	</g>
</g>
<ellipse transform="matrix(0.1996 -0.9799 0.9799 0.1996 370.5096 649.7482)" class="st2" cx="582.98" cy="98.08" rx="2.19" ry="1.67"/>
<ellipse transform="matrix(0.9992 -0.0391 0.0391 0.9992 -3.416 22.2325)" class="st2" cx="566.94" cy="98.49" rx="1.67" ry="2.19"/>
<g>
	<g>
		<path class="st2" d="M561.74,102.35c1.06,8.46,6.24,17.91,13.21,23.02c7.88,5.77,16.17,1.78,22.98-3.63
			c0.91-0.72-0.37-1.99-1.27-1.27c-7.13,5.67-15.33,8.72-22.77,1.61c-5.2-4.97-9.44-12.59-10.34-19.73
			C563.4,101.21,561.6,101.2,561.74,102.35L561.74,102.35z"/>
	</g>
</g>
<g>
	<g>
		<path class="st2" d="M586.19,128.24c1.47,3.44,2.45,7.01,3,10.71c0.17,1.14,1.9,0.66,1.74-0.48c-0.58-3.87-1.65-7.54-3.18-11.14
			C587.29,126.27,585.74,127.19,586.19,128.24L586.19,128.24z"/>
	</g>
</g>
<g>
	<g>
		<path class="st2" d="M583.95,92.69c0.47,0.13,0.94,0.27,1.41,0.4c0.45,0.13,1-0.16,1.11-0.63c0.11-0.48-0.14-0.97-0.63-1.11
			c-0.47-0.13-0.94-0.27-1.41-0.4c-0.45-0.13-1,0.16-1.11,0.63C583.21,92.06,583.46,92.55,583.95,92.69L583.95,92.69z"/>
	</g>
</g>
<g>
	<g>
		<path class="st2" d="M567.5,92.15c-0.47,0.17-0.94,0.34-1.41,0.51c-0.44,0.16-0.79,0.62-0.63,1.11c0.14,0.43,0.63,0.8,1.11,0.63
			c0.47-0.17,0.94-0.34,1.41-0.51c0.44-0.16,0.79-0.62,0.63-1.11C568.47,92.35,567.98,91.98,567.5,92.15L567.5,92.15z"/>
	</g>
</g>
<g>
	<g>
		<path class="st2" d="M510.47,233.51c-5.03-4.23-2.02-11.05,3.17-13.45c4.91-2.27,10.37-1.27,15.45-0.15
			c1.13,0.25,1.61-1.49,0.48-1.74c-6.74-1.48-14.8-2.61-20.29,2.63c-3.99,3.8-4.44,10.3-0.07,13.98
			C510.08,235.53,511.36,234.26,510.47,233.51L510.47,233.51z"/>
	</g>
</g>
<g>
	<g>
		<path class="st2" d="M530.86,219.11c8.28-7.16,16.36-14.54,24.22-22.16c0.83-0.81-0.44-2.08-1.27-1.27
			c-7.86,7.62-15.93,15-24.22,22.16C528.71,218.6,529.99,219.87,530.86,219.11L530.86,219.11z"/>
	</g>
</g>
<g>
	<g>
		<path class="st2" d="M530.67,234.45c13.9-7.4,27.79-14.81,41.69-22.21c1.02-0.54,0.11-2.1-0.91-1.55
			c-13.9,7.4-27.79,14.81-41.69,22.21C528.74,233.44,529.65,235,530.67,234.45L530.67,234.45z"/>
	</g>
</g>
<g>
	<g>
		<path class="st2" d="M510.19,221.53c1.31-8.61,10.78-9.54,17.77-8.44c1.13,0.18,1.62-1.56,0.48-1.74
			c-7.88-1.24-18.52,0.05-19.99,9.7C508.28,222.19,510.01,222.68,510.19,221.53L510.19,221.53z"/>
	</g>
</g>
<g>
	<g>
		<path class="st2" d="M528.98,212.02c8.04-9.81,15.95-19.72,23.74-29.72c0.7-0.9-0.56-2.19-1.27-1.27
			c-7.79,10.01-15.7,19.91-23.74,29.72C526.98,211.64,528.24,212.92,528.98,212.02L528.98,212.02z"/>
	</g>
</g>
<g>
	<g>
		<path class="st5" d="M656.05,468.52c33.49-6.29,66.99-12.57,100.48-18.85c1.9-0.36,1.09-3.25-0.8-2.89
			c-33.49,6.28-66.99,12.57-100.48,18.85C653.36,465.98,654.16,468.87,656.05,468.52L656.05,468.52z"/>
	</g>
</g>
<g>
	<g>
		<path class="st5" d="M656.45,408.01c34.19,5.85,68.38,11.69,102.58,17.54c1.89,0.32,2.7-2.57,0.8-2.89
			c-34.19-5.85-68.38-11.69-102.58-17.54C655.36,404.8,654.55,407.69,656.45,408.01L656.45,408.01z"/>
	</g>
</g>
<path class="st2" d="M780.67,436.89c0,8.17-6.62,14.79-14.79,14.79c-8.17,0-14.79-6.62-14.79-14.79c0-8.17,6.62-14.79,14.79-14.79
	C774.05,422.1,780.67,428.72,780.67,436.89z"/>
<g>
	<g>
		<path class="st2" d="M602.53,98.94c0.39-0.91,0.78-1.86,1.45-2.6c0.65-0.72,2.04-1.64,2.98-1.03c0.65,0.42,1.25-0.62,0.61-1.04
			c-1.17-0.76-2.52-0.23-3.59,0.49c-1.26,0.85-1.91,2.22-2.49,3.58C601.19,99.04,602.23,99.65,602.53,98.94L602.53,98.94z"/>
	</g>
</g>
<g>
	<g>
		<path class="st2" d="M59.01,522.02c69.9,0,139.8,0,209.71,0c19.97,0,39.94,0,59.92,0c1.93,0,1.93-3,0-3c-69.9,0-139.8,0-209.71,0
			c-19.97,0-39.94,0-59.92,0C57.08,519.02,57.07,522.02,59.01,522.02L59.01,522.02z"/>
	</g>
</g>
<g>
	<g>
		<path class="st2" d="M359.7,522.02c40.93,0,81.85,0,122.78,0c1.93,0,1.93-3,0-3c-40.93,0-81.85,0-122.78,0
			C357.77,519.02,357.77,522.02,359.7,522.02L359.7,522.02z"/>
	</g>
</g>
<g>
	<g>
		<path class="st2" d="M530.99,521.26c96.5,0,193.01,0,289.51,0c27.29,0,54.57,0,81.86,0c1.93,0,1.93-3,0-3
			c-96.5,0-193.01,0-289.51,0c-27.29,0-54.57,0-81.86,0C529.06,518.26,529.05,521.26,530.99,521.26L530.99,521.26z"/>
	</g>
</g>
<path class="st4" d="M654.52,455.72c-2.49-0.37-5.97-0.6-10.04,0c-5.03,0.74-8.91,2.46-11.37,3.79c0.41-1.23,0.96-3.53,0.19-6.06
	c-1.25-4.1-5.45-7.1-10.61-7.58c-4.58,2.97-8.44,5.49-11.37,7.39c-6.92,4.5-7.22,4.71-8.34,5.31c-6.87,3.65-8.95,2.97-11.94,6.06
	c-1,1.04-4.07,4.21-3.79,8.72c0.24,3.8,2.72,6.33,3.52,7.08c19.73,2.19,39.46,4.37,59.19,6.56c1.78-2.36,4.13-6.11,5.49-11.18
	C657.95,466.61,655.66,458.86,654.52,455.72z"/>
<g>
	<g>
		<path class="st2" d="M624.16,448.59c4.69,0.43,7.87,4.64,7.05,9.27c-0.34,1.89,2.56,2.7,2.89,0.8c1.18-6.66-3.21-12.46-9.94-13.07
			C622.24,445.42,622.25,448.42,624.16,448.59L624.16,448.59z"/>
	</g>
</g>
<g>
	<g>
		<path class="st2" d="M612.19,477.88c6-4.58,11.99-9.16,17.99-13.73c1.51-1.16,0.02-3.76-1.51-2.59c-6,4.58-11.99,9.16-17.99,13.73
			C609.16,476.44,610.66,479.05,612.19,477.88L612.19,477.88z"/>
	</g>
</g>
<g>
	<g>
		<path class="st2" d="M606.59,460.16c1.85,1.14,3.61,2.41,5.26,3.83c1.46,1.25,3.59-0.86,2.12-2.12c-1.84-1.59-3.8-3.03-5.87-4.3
			C606.46,456.55,604.95,459.15,606.59,460.16L606.59,460.16z"/>
	</g>
</g>
<g>
	<g>
		<path class="st2" d="M611.9,456c1.6,1.25,3.2,2.51,4.8,3.76c0.64,0.5,1.49,0.61,2.12,0c0.53-0.51,0.64-1.62,0-2.12
			c-1.6-1.25-3.2-2.51-4.8-3.76c-0.64-0.5-1.49-0.61-2.12,0C611.37,454.4,611.26,455.5,611.9,456L611.9,456z"/>
	</g>
</g>
<g>
	<g>
		<path class="st2" d="M617.64,452.45c1.36,0.63,2.67,1.39,3.85,2.31c0.64,0.5,1.5,0.62,2.12,0c0.52-0.52,0.64-1.62,0-2.12
			c-1.4-1.08-2.86-2.03-4.46-2.78c-0.73-0.34-1.62-0.21-2.05,0.54C616.72,451.05,616.9,452.11,617.64,452.45L617.64,452.45z"/>
	</g>
</g>
<g>
	<g>
		<path class="st2" d="M595.96,465.86c5.36,1.3,9.6,5.75,10.32,11.29c0.25,1.89,3.25,1.91,3,0c-0.89-6.86-5.74-12.53-12.52-14.18
			C594.88,462.51,594.08,465.4,595.96,465.86L595.96,465.86z"/>
	</g>
</g>
<g>
	<g>
		<path class="st2" d="M647.08,457.83c1.11-0.08,2.21-0.12,3.31-0.09c0.49,0.02,1.38-0.11,1.84,0.12c0.18,0.03,0.36,0.06,0.54,0.08
			c0.08,0.37,0.15,0.74,0.22,1.11c0.47,2.48,0.75,4.98,0.89,7.5c0.11,1.92,3.11,1.93,3,0c-0.11-1.9-0.29-3.79-0.56-5.68
			c-0.2-1.39-0.23-3.25-0.92-4.48c-1.37-2.46-6.04-1.74-8.33-1.57C645.16,454.98,645.15,457.98,647.08,457.83L647.08,457.83z"/>
	</g>
</g>
<g>
	<g>
		<path class="st2" d="M591.55,482.67c13.79,1.4,27.59,2.79,41.38,4.19c3.21,0.32,6.42,0.65,9.62,0.97c2,0.2,5.09,1.14,7.07,0.24
			c3.32-1.52,5.01-7.74,6.26-10.87c0.71-1.79-2.19-2.57-2.89-0.8c-0.87,2.18-1.79,5.06-3.27,6.94c-2.27,2.9-5.88,1.62-9.09,1.3
			c-5.45-0.55-10.91-1.1-16.36-1.66c-10.91-1.1-21.81-2.21-32.72-3.31C589.63,479.48,589.64,482.48,591.55,482.67L591.55,482.67z"/>
	</g>
</g>
<g>
	<g>
		<path class="st2" d="M620.87,410.84c16.71-2.23,33.43-4.46,50.14-6.69c1.89-0.25,1.91-3.25,0-3c-16.71,2.23-33.43,4.46-50.14,6.69
			C618.99,408.09,618.96,411.09,620.87,410.84L620.87,410.84z"/>
	</g>
</g>
<g>
	<g>
		<path class="st2" d="M654.07,406.63c-1.44,15.89-2.88,31.78-4.32,47.67c-0.17,1.92,2.83,1.91,3,0
			c1.44-15.89,2.88-31.78,4.32-47.67C657.24,404.71,654.24,404.72,654.07,406.63L654.07,406.63z"/>
	</g>
</g>
</svg>
