<?xml version="1.0" encoding="UTF-8"?>
<!-- Generator: Adobe Illustrator 19.2.1, SVG Export Plug-In . SVG Version: 6.00 Build 0)  -->
<svg version="1.1" xmlns="http://www.w3.org/2000/svg" xmlns:xlink="http://www.w3.org/1999/xlink" x="0px" y="0px" viewBox="0 0 200 100" style="enable-background:new 0 0 200 100;" xml:space="preserve">
<style type="text/css">
	.st0{fill:#1F2343;}
</style>

<g id="Lieferbike">
	<path class="st0" d="M137.6,70.2c0.1,0.3,0.5,0.5,0.8,0.3l1.9-0.8c0.3-0.1,0.5-0.5,0.3-0.8l-6.8-15.2c1.7-0.6,3.6-0.9,5.5-0.9   c9.2,0,16.6,7.5,16.6,16.6c0,9.2-7.5,16.6-16.6,16.6c-9.2,0-16.6-7.5-16.6-16.6c0-6.1,3.3-11.4,8.2-14.3L137.6,70.2z M104.4,64.7   c-1.2,1.2-2.5,1.8-3.2,2c-0.7-0.4-1.6-0.9-2.5-1.5c-2.3-1.5-4.8-3.7-5.8-6.9c-1-3.2-3.8-11.8-3.9-12.1h34.2L104.4,64.7z M80.3,67.5   c-0.4-4.1-2-7.9-4.5-10.9l10-10.1l0.4,1.2l3.7,11.5c1.1,3.7,3.6,6.1,6.8,8.2H80.3z M64.6,67.8l9-9c2,2.5,3.3,5.6,3.6,9H64.6z    M59.1,85.8c-7.8-0.7-14.2-6.9-15-14.7c-1.1-10,6.7-18.5,16.5-18.5c4.1,0,7.9,1.5,10.8,4L60.3,67.8c-0.3,0.3-0.4,0.7-0.2,1.1   l0.6,1.4c0.2,0.4,0.5,0.6,0.9,0.6h15.6C76.4,79.8,68.4,86.7,59.1,85.8 M134.4,46.2h23.3c0.8,0,1.4-0.6,1.4-1.4V21.6   c0-0.8-0.6-1.4-1.4-1.4h-23.3c-0.8,0-1.4,0.6-1.4,1.4v21.3h-4l-7.5-16.8c-1.2-2.8-4.2-5.6-6.8-6.4l-3.3-1.1   c-0.3-0.1-0.7,0.1-0.8,0.4L110,21c-0.1,0.3,0.1,0.7,0.4,0.8l3.3,1.1c1.7,0.5,4,2.7,4.8,4.6l6.9,15.4H88L85.5,35h4.4   c0,0,0.5,0,0.5-0.5v-2.1c0,0,0-0.5-0.5-0.5H77.2c0,0-0.5,0-0.5,0.5v2.1c0,0,0,0.5,0.5,0.5H82h0l2.5,7.9h-11V13   c0-0.8-0.6-1.4-1.4-1.4H42.4c-0.8,0-1.4,0.6-1.4,1.4v31.7c0,0.8,0.6,1.4,1.4,1.4h21.7h8h9.8l-8.3,8.3c-3.8-3.3-8.8-5.2-14.3-4.9   C49.6,50.2,41.6,58.2,41,68c-0.7,11.5,8.4,21,19.7,21c10.3,0,18.8-8.1,19.7-18.2h17.3c4.8,0,7-1.6,9.1-3.7l20.5-20.2l2.4,5.3   c-6,3.4-10,9.8-10,17.2c0,10.9,8.8,19.8,19.8,19.8c10.9,0,19.8-8.8,19.8-19.8c0-10.9-8.8-19.8-19.8-19.8c-2.4,0-4.6,0.4-6.8,1.2   l-2.1-4.7h3.6C134.1,46.2,134.3,46.2,134.4,46.2"/>
</g>
</svg>