<?xml version="1.0" encoding="UTF-8"?>
<!-- Generator: Adobe Illustrator 19.2.1, SVG Export Plug-In . SVG Version: 6.00 Build 0)  -->
<svg version="1.1" xmlns="http://www.w3.org/2000/svg" xmlns:xlink="http://www.w3.org/1999/xlink" x="0px" y="0px" viewBox="0 0 200 100" style="enable-background:new 0 0 200 100;" xml:space="preserve">
<style type="text/css">
	.st0{fill:#1F2343;}
</style>

<g id="Longtail">
	<path class="st0" d="M170.5,86c-9.3,0-16.8-7.5-16.8-16.8c0-6.2,3.4-11.6,8.4-14.5l6.7,15c0.2,0.4,0.6,0.5,1,0.3   c0.5-0.2,1.2-0.6,1.7-0.8c0.4-0.2,0.5-0.6,0.4-1c0,0-3-6.7-6.6-14.9c1.7-0.6,3.5-0.9,5.5-0.9c9.3,0,16.8,7.5,16.8,16.8   C187.3,78.5,179.8,86,170.5,86 M122.7,66.3c-1.3,0.5-2.6,0.8-3.7,0.8h-17.4c0,0,1.5-0.9,2-1.2c2.6-1.6,5.3-4.8,6.3-8.2   c1.5-4.7,5.8-18.3,5.8-18.3L122.7,66.3L122.7,66.3z M29.5,86c-9.3,0-16.8-7.5-16.8-16.8c0-9.3,7.5-16.8,16.8-16.8   c4.1,0,7.9,1.5,10.8,3.9l-11,11c-0.2,0.2-0.3,0.5-0.2,0.8c0.1,0.1,0.5,1.1,0.8,1.7c0.1,0.3,0.5,0.5,0.8,0.5l15.6,0   C45.7,79.1,38.4,86,29.5,86 M42.5,58.4c2,2.5,3.4,5.5,3.8,8.9H33.6L42.5,58.4z M52.4,67.3h-3c-0.4-4.2-2.1-8.1-4.7-11.1l7.7-7.7   V67.3z M170.5,49.2c-2.4,0-4.6,0.4-6.7,1.2c-4.6-10.3-9.8-21.9-11.2-25.2c-1.2-2.8-3.6-5.4-6.9-6.5c-0.9-0.3-3.6-1.1-3.6-1.1   c-0.2-0.1-0.5,0.1-0.6,0.3l-0.7,2.2c-0.1,0.3,0.1,0.6,0.3,0.7c0,0,2.6,0.8,3.5,1.1c2,0.7,4,2.7,4.9,4.6c1.3,2.9,5.2,11.8,5.2,11.8   l-28.7,26c-0.2,0.2-0.4,0.3-0.6,0.5l-8-30.6h4.8c0,0,0.5,0,0.5-0.5v-2.1c0,0,0-0.5-0.5-0.5h-12.8c0,0-0.5,0-0.5,0.5v2.1   c0,0,0,0.5,0.5,0.5l4.5-0.1c0,0-5.3,17-7.3,22.7c-0.9,2.6-2.9,4.9-4.7,6.1c-0.1,0.1-0.4,0.3-0.4,0.3V32.6c0-0.8-0.7-1.5-1.5-1.5   H53.9c-0.8,0-1.5,0.7-1.5,1.5v11.5L42.5,54c-3.5-3-8-4.8-13-4.8c-11,0-20,8.9-20,20s8.9,20,20,20c10.6,0,19.3-8.3,19.9-18.8l16.9,0   l52.7,0c3,0,7.1-1.6,9.3-3.6l27.9-25.3l4.6,10.3c-6.1,3.4-10.2,9.9-10.2,17.4c0,11,8.9,20,20,20c11,0,20-8.9,20-20   S181.5,49.2,170.5,49.2"/>
</g>
</svg>