<?xml version="1.0" encoding="UTF-8"?>
<!-- Generator: Adobe Illustrator 19.2.1, SVG Export Plug-In . SVG Version: 6.00 Build 0)  -->
<svg version="1.1" xmlns="http://www.w3.org/2000/svg" xmlns:xlink="http://www.w3.org/1999/xlink" x="0px" y="0px" viewBox="0 0 200 100" style="enable-background:new 0 0 200 100;" xml:space="preserve">
<style type="text/css">
	.st0{fill:#1F2343;}
</style>

<g id="Long_John">
	<path class="st0" d="M166.7,85.7c-5.6-0.6-10.2-5.1-10.9-10.7c-0.8-6.1,2.8-11.6,8.2-13.5l3.4,13.1c0,0,0.1,0.5,0.6,0.4l2.2-0.6   c0,0,0.5-0.1,0.4-0.6l-3.4-12.9c0.3,0,0.6,0,1,0c6.9,0,12.5,5.6,12.5,12.5C180.7,80.7,174.3,86.5,166.7,85.7 M38.5,69.4h17   c-0.9,9.7-9.6,17.2-19.7,16.3c-8.5-0.8-15.4-7.5-16.4-16c-1.2-10.9,7.3-20.2,18-20.2c4.5,0,8.6,1.6,11.8,4.3L37.1,66   c-0.3,0.3-0.4,0.8-0.2,1.2l0.6,1.5C37.7,69.1,38.1,69.4,38.5,69.4 M51.6,56.3c2.2,2.7,3.6,6.1,4,9.8H41.8L51.6,56.3z M68.8,55.6   c1.3,4,4,6.8,7.5,9.1l2.1,1.4H58.9c-0.3-4.6-2.1-8.8-4.9-12.1L64.8,43L68.8,55.6z M96.7,41.3L99.1,66H85.1c0,0-4.2-2.4-6.6-4   c-2.5-1.6-5.2-4-6.3-7.5C71.1,51,68,41.3,68,41.3H96.7z M101.3,69.4h22.3v0h6.3c6,0,7.6-1.8,9.9-4L160,46.1l3.2,12.2   c-6.7,2.3-11.4,8.9-10.7,16.4c0.7,7.4,6.6,13.5,14,14.3c9.5,1.1,17.6-6.4,17.6-15.7c0-8.7-7.1-15.8-15.8-15.8c-0.6,0-1.2,0-1.8,0.1   l-5.4-20.9c0,0-0.1-0.5-0.6-0.4l-2.2,0.6c0,0-0.5,0.1-0.4,0.6l1,4h-58.5l-1.5-15.2c-0.3-3.3-2.4-7.2-4.8-8.8l-3.1-2.2   c-0.2-0.2-0.5-0.1-0.7,0.1l-1.4,2c-0.2,0.3-0.1,0.6,0.1,0.8l3.1,2.2c1.5,1.1,3.1,4,3.3,6.3l1.1,11.2H66.9l-2.4-7.6h4.8   c0,0,0.5,0,0.5-0.5v-2.3c0,0,0-0.5-0.5-0.5H55.5c0,0-0.5,0-0.5,0.5v2.3c0,0,0,0.5,0.5,0.5h5.2h0l2.9,9.1L51.6,51.5   c-4.1-3.6-9.6-5.7-15.5-5.3c-10.7,0.7-19.4,9.4-20.1,20c-0.8,12.5,9.1,22.9,21.5,22.9c11.3,0,20.5-8.7,21.4-19.8h41.8"/>
</g>
</svg>