<?xml version="1.0" encoding="UTF-8"?>
<!-- Generator: Adobe Illustrator 19.2.1, SVG Export Plug-In . SVG Version: 6.00 Build 0)  -->
<svg version="1.1" xmlns="http://www.w3.org/2000/svg" xmlns:xlink="http://www.w3.org/1999/xlink" x="0px" y="0px" viewBox="0 0 200 100" style="enable-background:new 0 0 200 100;" xml:space="preserve">
<style type="text/css">
	.st0{fill:#1F2343;}
</style>

<g id="Schwertransporter">
	<path class="st0" d="M154.9,86c-9.3,0-16.8-7.5-16.8-16.8c0-6.2,3.4-11.6,8.4-14.6l6.7,15c0.2,0.4,0.6,0.5,1,0.3   c0.5-0.2,1.2-0.6,1.7-0.8c0.4-0.2,0.5-0.6,0.4-1c0,0-3-6.7-6.6-14.9c1.7-0.6,3.6-0.9,5.5-0.9c9.3,0,16.8,7.5,16.8,16.8   C171.7,78.5,164.2,86,154.9,86 M107,66.2c-1.3,0.5-2.6,0.8-3.7,0.8H85.9c0,0,1.5-0.9,2-1.2c2.6-1.6,5.3-4.8,6.3-8.2   c1.5-4.7,5.8-18.3,5.8-18.3L107,66.2z M72.4,70.3c-0.7,8.7-7.9,15.6-16.8,15.6S39.5,79,38.8,70.3c0-0.4-0.1-0.9-0.1-1.3   c0-0.7,0-1.4,0.1-2c1-8.4,8.1-14.8,16.7-14.8S71.3,58.6,72.3,67c0.1,0.7,0.1,1.3,0.1,2C72.4,69.4,72.4,69.9,72.4,70.3 M154.9,49.2   c-2.4,0-4.6,0.4-6.7,1.2c-4.6-10.3-9.8-21.9-11.2-25.2c-1.2-2.8-3.6-5.4-6.9-6.5c-0.9-0.3-3.6-1.1-3.6-1.1   c-0.2-0.1-0.5,0.1-0.6,0.3l-0.7,2.2c-0.1,0.3,0.1,0.6,0.3,0.7c0,0,2.6,0.8,3.5,1.1c2,0.7,4,2.7,4.9,4.7c1.3,2.9,5.2,11.8,5.2,11.8   l-28.7,26.1c-0.2,0.2-0.4,0.3-0.6,0.5l-8-30.6h4.8c0,0,0.5,0,0.5-0.5v-2.1c0,0,0-0.5-0.5-0.5H93.8c0,0-0.5,0-0.5,0.5v2.1   c0,0,0,0.5,0.5,0.5l4.5-0.1c0,0-5.3,17-7.3,22.8c-0.9,2.6-2.9,4.9-4.7,6.1c-0.1,0.1-0.4,0.3-0.4,0.3v-51c0-0.8-0.7-1.5-1.5-1.5   H26.6c-0.8,0-1.5,0.7-1.5,1.5v56.7c0,0.8,0.7,1.5,1.5,1.5h9.1C36.3,80.7,45,89,55.6,89c10.6,0,19.3-8.3,19.9-18.7   c0.1,0,0.1,0,0.2,0h27.6c3,0,7.1-1.6,9.3-3.6l27.9-25.3l4.6,10.3c-6.1,3.4-10.2,10-10.2,17.4c0,11,8.9,20,20,20c11,0,20-8.9,20-20   C174.9,58.1,165.9,49.2,154.9,49.2"/>
</g>
</svg>