<svg xmlns="http://www.w3.org/2000/svg" fill="none" viewBox="0 0 474 174">
  <path fill="#1F2343" d="M420.335 127.014c.245.735 1.225 1.225 1.96.735l4.655-1.96c.735-.245 1.225-1.225.735-1.96l-16.66-37.24c4.165-1.47 8.82-2.204 13.475-2.204 22.539 0 40.669 18.374 40.669 40.669 0 22.539-18.375 40.669-40.669 40.669-22.54 0-40.67-18.375-40.67-40.669 0-14.945 8.085-27.93 20.09-35.035l16.415 36.995zm-81.339-13.475c-2.94 2.94-6.125 4.41-7.84 4.9-1.715-.98-3.92-2.205-6.125-3.675-5.634-3.675-11.759-9.065-14.209-16.905-2.45-7.84-9.31-28.91-9.555-29.644h83.788l-46.059 45.324zm-59.044 6.86c-.98-10.045-4.9-19.355-11.025-26.705l24.5-24.744.98 2.94 9.065 28.174c2.695 9.065 8.82 14.945 16.66 20.09h-40.18v.245zm-38.464.735l22.05-22.05a40.993 40.993 0 018.819 22.05h-30.869zm-13.475 44.099c-19.11-1.715-34.789-16.905-36.749-36.014-2.695-24.5 16.414-45.325 40.424-45.325a40.49 40.49 0 0126.46 9.8l-27.195 27.44c-.735.735-.98 1.715-.49 2.695l1.47 3.43c.49.98 1.225 1.47 2.205 1.47h38.219c-1.96 21.804-21.559 38.709-44.344 36.504zM403.185 67.97l-3.92-7.84-18.375-41.16c-2.939-6.86-10.289-13.72-16.659-15.68L356.146.597c-.735-.245-1.715.245-1.96.98l-1.47 4.9c-.245.735.245 1.715.98 1.96l8.085 2.695c4.165 1.225 9.8 6.615 11.76 11.27l16.904 37.729h-91.628l-6.125-19.355h10.78s1.225 0 1.225-1.225v-5.145s0-1.225-1.225-1.225h-31.115s-1.225 0-1.225 1.225v5.145s0 1.225 1.225 1.225h11.76l6.125 19.355-6.37 7.84-20.334 20.334c-9.31-8.084-21.56-12.74-35.035-12.004-23.764 1.715-43.364 21.314-44.834 45.324-1.715 28.174 20.58 51.449 48.264 51.449 25.235 0 46.059-19.845 48.264-44.589h42.384c11.76 0 17.15-3.92 22.295-9.065l50.224-49.49 5.88 12.986c-14.7 8.33-24.499 24.009-24.499 42.139 0 26.704 21.559 48.509 48.509 48.509 26.704 0 48.509-21.56 48.509-48.509 0-26.705-21.56-48.51-48.509-48.51-5.88 0-11.27.98-16.66 2.94l-5.145-11.514z"/>
  <path fill="#1F2343" fill-rule="evenodd" d="M7.917 134.232c0 17.768 14.416 32.331 32.055 32.331 17.638 0 32.053-14.563 32.053-32.331 0-17.767-14.415-32.331-32.054-32.331-17.638 0-32.054 14.564-32.054 32.331zm32.055-39.33c-21.57 0-39.055 17.761-39.055 39.33s17.486 39.331 39.054 39.331c21.57 0 39.054-17.762 39.054-39.331 0-21.569-17.485-39.33-39.054-39.33zM251.785 109.479a3.499 3.499 0 00-3.15-3.817l-40.646-3.888-89.171 21.802a3.5 3.5 0 001.662 6.8l88.021-21.521 39.467 3.775a3.5 3.5 0 003.817-3.151z" clip-rule="evenodd"/>
  <path fill="#1F2343" d="M23.927 42.657H148.63v96.333c0 5.51-4.457 9.982-9.968 10l-65.58.21.726-20.582-6.538-19.614L46.688 98.35l-22.52 3.632-.241-59.325z"/>
</svg>
