<?xml version="1.0" encoding="UTF-8"?>
<!-- Generator: Adobe Illustrator 19.2.1, SVG Export Plug-In . SVG Version: 6.00 Build 0)  -->
<svg version="1.1" xmlns="http://www.w3.org/2000/svg" xmlns:xlink="http://www.w3.org/1999/xlink" x="0px" y="0px" viewBox="0 0 200 100" style="enable-background:new 0 0 200 100;" xml:space="preserve">
<style type="text/css">
	.st0{fill:#1F2343;}
</style>
<g id="Trike">
	<path class="st0" d="M165.1,69c-0.8,9.3-8.6,16.5-18.1,16.5c-9.5,0-17.3-7.3-18.1-16.5c-0.1-0.5-0.1-1.1-0.1-1.7   c0-0.6,0-1.3,0.1-1.9c1-9.1,8.7-16.3,18.1-16.3c9.4,0,17.1,7.1,18.1,16.3c0.1,0.6,0.1,1.3,0.1,1.9C165.1,67.9,165.1,68.5,165.1,69    M66.7,65.8c-0.4-4.6-2.2-8.8-5-12.1l10.8-10.8c0,0,3.3,10.3,4.6,14.1c1.2,3.3,2.3,5,5.1,6.9c1.2,0.8,3.1,1.8,3.1,1.8H66.7z    M45.2,85.7c-10,0-18.2-8.1-18.2-18.2c0-10,8.1-18.2,18.2-18.2c4.5,0,8.6,1.6,11.8,4.3L44.9,65.8c-0.2,0.2-0.3,0.6-0.2,0.9   c0.1,0.1,0.5,1.2,0.8,1.9c0.2,0.3,0.5,0.6,0.9,0.6h16.9C62.5,78.4,54.7,85.7,45.2,85.7 M59.3,56.1c2.2,2.7,3.6,6,4,9.7H49.6   L59.3,56.1z M174.7,26.5h-59l-0.1-0.5c-0.3-3.3-2.4-7.2-4.8-8.9l-4-2.9c-0.3-0.2-0.7-0.1-1,0.2c-0.3,0.4-0.7,1-1,1.5   c-0.3,0.5-0.5,0.8,0.1,1.3l3.8,2.7c1.6,1.1,3.1,4.1,3.3,6.3l2.5,25.1c0,0.2,1.1,10.7,1.1,10.7l0.1,0.3c0.1,1.2,0.6,2.4,1.3,3.4   H92.5c0,0-0.1,0-0.1-0.1c0,0-5.2-2.5-7.3-4c-3-2.1-4.1-3.7-5.1-6.9c-2.6-7.6-8-25-8-25h0.3h5.2c0,0,0.5,0,0.5-0.5V27   c0,0,0-0.5-0.5-0.5H63.8c0,0-0.5,0-0.5,0.5v2.3c0,0,0,0.5,0.5,0.5h4.6l3,9.5l-12,12C55.6,48,50.6,46,45.2,46   c-11.9,0-21.6,9.7-21.6,21.6s9.7,21.6,21.6,21.6c11.4,0,20.8-8.9,21.5-20.1h58.8C126.3,80.2,135.6,89,147,89   c11.4,0,20.7-8.8,21.5-19.9h6.2c1,0,1.7-0.8,1.7-1.7V28.2C176.4,27.3,175.6,26.5,174.7,26.5"/>
</g>
</svg>